<?xml version="1.0" encoding="iso-8859-1"?>
<!-- Generator: Adobe Illustrator 17.1.0, SVG Export Plug-In . SVG Version: 6.00 Build 0)  -->
<!DOCTYPE svg PUBLIC "-//W3C//DTD SVG 1.1//EN" "http://www.w3.org/Graphics/SVG/1.1/DTD/svg11.dtd">
<svg version="1.1" id="Layer_1" xmlns="http://www.w3.org/2000/svg" xmlns:xlink="http://www.w3.org/1999/xlink" x="0px" y="0px"
	 viewBox="0 0 64 64" style="enable-background:new 0 0 64 64;" xml:space="preserve">
<g>
	<path d="M13.68,29.083c1.878,0.069,0.974,15.07,0.974,15.834c0,0,3.199,4.083,13.49,4.083h0.556
		c10.292,0,13.491-4.101,13.491-4.101c0-0.618-0.59-10.62,0.176-14.466c-2.432-2.11-4.072-5.107-4.395-8.489
		C35.306,21.362,32.233,21,28.701,21h-0.556C9.647,21,3.667,30.864,3.667,30.864l9.457,4.376
		C13.124,35.24,12.289,29.083,13.68,29.083z M36.524,30.714c0.903,0,1.634,0.732,1.634,1.634s-0.732,1.634-1.634,1.634
		s-1.634-0.732-1.634-1.634S35.621,30.714,36.524,30.714z M23.207,37.529c1.878-1.321,4.755-1.104,4.755-1.104l0.795-0.013
		c0,0,2.806-0.204,4.684,1.117c1.878,1.321-4.606,3.381-4.606,3.381l-0.519,0.117l-0.498-0.13
		C27.818,40.898,21.329,38.85,23.207,37.529z M19.834,30.714c0.903,0,1.634,0.732,1.634,1.634s-0.732,1.634-1.634,1.634
		c-0.903,0-1.634-0.732-1.634-1.634S18.932,30.714,19.834,30.714z"/>
	<path d="M43.967,31.616c0,1.671-0.246,3.506-0.246,3.506l4.165-1.873C46.476,32.922,45.158,32.364,43.967,31.616z"/>
	<path d="M50.789,31.591c0.297,0,0.59-0.021,0.881-0.044c5.596-0.45,9.999-5.124,9.999-10.836c0-6.009-4.871-10.88-10.88-10.88
		c-6.009,0-10.88,4.871-10.88,10.88c0,0.6,0.061,1.185,0.155,1.759C40.907,27.64,45.381,31.591,50.789,31.591z M47,19h3v-3
		c0-0.552,0.448-1,1-1s1,0.448,1,1v3h3c0.552,0,1,0.448,1,1c0,0.552-0.448,1-1,1h-3v3c0,0.552-0.448,1-1,1s-1-0.448-1-1v-3h-3
		c-0.552,0-1-0.448-1-1C46,19.448,46.448,19,47,19z"/>
</g>
</svg>
