<?xml version="1.0" encoding="UTF-8" standalone="no"?>
<svg width="355px" height="355px" viewBox="0 0 355 355" version="1.1" xmlns="http://www.w3.org/2000/svg" xmlns:xlink="http://www.w3.org/1999/xlink" xmlns:sketch="http://www.bohemiancoding.com/sketch/ns">
    <!-- Generator: Sketch 3.3.3 (12072) - http://www.bohemiancoding.com/sketch -->
    <title>breed_icon</title>
    <desc>Created with Sketch.</desc>
    <defs></defs>
    <g id="Page-1" stroke="none" stroke-width="1" fill="none" fill-rule="evenodd" sketch:type="MSPage">
        <g id="breed_icon" sketch:type="MSLayerGroup">
            <circle id="Oval-1" fill="#A6CE39" sketch:type="MSShapeGroup" cx="177.5" cy="177.5" r="177.5"></circle>
            <path d="M139.719693,167.205257 C158.448772,167.205257 173.682302,146.776731 173.682302,121.659985 C173.682302,96.5450414 158.448171,76.1105089 139.719693,76.1105089 C120.996023,76.1105089 105.760691,96.5444408 105.760691,121.659985 C105.760691,146.776731 120.996023,167.205257 139.719693,167.205257 Z M240.454757,211.510308 C239.758171,210.561973 239.090435,209.667692 238.733427,208.898935 C231.139501,192.655331 210.323069,173.505464 176.598465,173.029195 L175.300857,173.021988 C142.094335,173.021988 121.432967,191.158056 113.166496,208.137985 C112.88101,208.718757 112.252941,209.4725 111.587609,210.269485 C110.800269,211.203405 110.021343,212.158947 109.355409,213.19737 C102.372123,224.053065 98.8116624,236.275707 99.3369565,247.610675 C99.8874936,259.644731 104.929476,269.310654 113.50968,274.824686 C116.976381,277.049879 120.717148,278.171183 124.641829,278.171183 C132.734604,278.171183 140.144015,273.616296 148.73023,268.340698 C154.189322,264.978586 159.82812,261.509568 166.091381,258.91321 C166.793376,258.681982 169.669872,258.328834 174.374079,258.328834 C179.967801,258.328834 183.985038,258.826124 184.843299,259.122216 C190.957506,261.819473 196.327046,265.357559 201.520486,268.772524 C209.482238,274.01629 216.999834,278.964565 225.156317,278.964565 C228.656675,278.964565 232.04945,278.041456 235.250499,276.224065 C252.909757,266.198388 256.273683,238.691888 242.75367,214.910858 C242.075115,213.717482 241.266739,212.603385 240.454757,211.510308 Z M211.936215,167.205257 C230.656279,167.205257 245.893414,146.776731 245.893414,121.659985 C245.893414,96.5450414 230.656279,76.1105089 211.936215,76.1105089 C193.205332,76.1105089 177.971803,96.5444408 177.971803,121.659985 C177.971803,146.776731 193.205332,167.205257 211.936215,167.205257 Z M267.71055,143.817615 C252.7,143.817615 240.952404,159.373541 240.952404,179.232707 C240.952404,199.082864 252.707212,214.640592 267.71055,214.640592 C282.712685,214.640592 294.474706,199.082864 294.474706,179.232707 C294.474706,159.374142 282.719898,143.817615 267.71055,143.817615 Z M113.519898,179.232707 C113.519898,159.374142 101.76509,143.817615 86.7611509,143.817615 C71.7566113,143.817615 60,159.374142 60,179.232707 C60,199.082864 71.7566113,214.640592 86.7611509,214.640592 C101.765691,214.640592 113.519898,199.082864 113.519898,179.232707 Z" id="Shape" fill="#3E3626" sketch:type="MSShapeGroup"></path>
        </g>
    </g>
</svg>