<?xml version="1.0" encoding="utf-8"?>
<!-- Generator: Adobe Illustrator 16.0.4, SVG Export Plug-In . SVG Version: 6.00 Build 0)  -->
<!DOCTYPE svg PUBLIC "-//W3C//DTD SVG 1.1//EN" "http://www.w3.org/Graphics/SVG/1.1/DTD/svg11.dtd">
<svg version="1.1" id="Layer_1" xmlns="http://www.w3.org/2000/svg" xmlns:xlink="http://www.w3.org/1999/xlink" x="0px" y="0px"
	 width="50px" height="50px" viewBox="0 0 50 50" enable-background="new 0 0 50 50" xml:space="preserve">
<path d="M44.312,18.458c-0.101-0.976-0.603-1.792-1.377-2.239c-0.404-0.233-0.871-0.356-1.35-0.356c-0.188,0-0.375,0.024-0.561,0.06
	c0.195-1.836-0.711-3.466-2.262-3.882c-0.234-0.063-0.479-0.095-0.723-0.095c-1.094,0-2.116,0.639-2.793,1.647
	c-0.678-1.008-1.699-1.647-2.793-1.647c-0.244,0-0.487,0.032-0.723,0.095c-1.551,0.416-2.457,2.045-2.26,3.882
	c-0.187-0.036-0.373-0.06-0.562-0.06c-0.479,0-0.944,0.124-1.35,0.356c-0.774,0.448-1.276,1.264-1.377,2.239
	c-0.082,0.808,0.115,1.675,0.56,2.441c0.565,0.982,1.444,1.658,2.396,1.893C28.895,23.489,28.75,24.23,28.75,25
	c0,0.938,0.159,1.62,0.499,2.146c0.435,0.672,1.138,1.041,1.979,1.041c0.621,0,1.236-0.194,1.891-0.401
	c0.695-0.22,1.417-0.448,2.131-0.448s1.436,0.229,2.131,0.448c0.653,0.207,1.271,0.401,1.891,0.401c0.746,0,2.479-0.311,2.479-3.188
	c0-0.77-0.145-1.511-0.393-2.208c0.951-0.234,1.83-0.911,2.396-1.892C44.197,20.132,44.396,19.265,44.312,18.458z M43.32,20.65
	c-0.487,0.846-1.246,1.45-2.082,1.656l-0.536,0.132l0.185,0.521c0.241,0.677,0.363,1.363,0.363,2.041
	c0,2.223-1.077,2.688-1.979,2.688c-0.543,0-1.123-0.184-1.74-0.379c-0.732-0.23-1.49-0.471-2.281-0.471s-1.548,0.24-2.287,0.473
	c-0.613,0.194-1.191,0.377-1.734,0.377c-0.677,0-1.215-0.28-1.561-0.812C29.383,26.432,29.25,25.836,29.25,25
	c0-0.677,0.122-1.364,0.361-2.042l0.186-0.52l-0.535-0.132c-0.835-0.206-1.594-0.81-2.082-1.658
	c-0.392-0.676-0.566-1.436-0.494-2.14c0.082-0.813,0.494-1.491,1.129-1.857c0.328-0.189,0.709-0.29,1.099-0.29
	c0.137,0,0.286,0.016,0.467,0.051l0.663,0.127l-0.072-0.672c-0.174-1.625,0.605-3,1.895-3.346c0.193-0.052,0.392-0.078,0.592-0.078
	c0.891,0,1.777,0.533,2.378,1.426l0.415,0.618l0.415-0.618c0.599-0.893,1.487-1.426,2.378-1.426c0.2,0,0.398,0.026,0.592,0.078
	c1.289,0.345,2.068,1.721,1.895,3.346l-0.072,0.672l0.663-0.127c0.182-0.035,0.33-0.051,0.466-0.051c0.391,0,0.77,0.1,1.1,0.29
	c0.635,0.366,1.045,1.043,1.129,1.857C43.889,19.212,43.712,19.973,43.32,20.65z"/>
<path d="M35.25,19.162c-1.793-0.001-5,2.614-5,5.838c0,3.225,2.238,0.838,5,0.838s5,2.387,5-0.838
	C40.25,21.776,37.043,19.163,35.25,19.162z"/>
<path d="M36.059,15.374c0.347-1.292,1.384-2.137,2.317-1.886c0.934,0.25,1.409,1.5,1.063,2.792s-1.384,2.137-2.317,1.886
	C36.188,17.917,35.713,16.666,36.059,15.374z M33.379,18.167c0.934-0.25,1.409-1.5,1.062-2.792
	c-0.346-1.292-1.383-2.136-2.316-1.886c-0.934,0.25-1.41,1.5-1.064,2.792C31.407,17.573,32.445,18.418,33.379,18.167z M30.729,18.6
	c-0.592-1.026-1.672-1.511-2.413-1.083s-0.862,1.606-0.27,2.632c0.593,1.026,1.673,1.511,2.414,1.083
	C31.201,20.804,31.321,19.625,30.729,18.6z M42.186,17.515c-0.741-0.428-1.822,0.057-2.414,1.083
	c-0.593,1.026-0.473,2.204,0.269,2.632c0.741,0.428,1.821-0.057,2.414-1.083S42.926,17.942,42.186,17.515z"/>
<path d="M22.936,26.218c-0.404-0.233-0.871-0.356-1.349-0.356c-0.188,0-0.375,0.024-0.561,0.061c0.196-1.836-0.71-3.466-2.262-3.882
	c-0.234-0.063-0.478-0.095-0.722-0.095c-1.094,0-2.116,0.639-2.793,1.647c-0.677-1.008-1.699-1.647-2.793-1.647
	c-0.244,0-0.487,0.032-0.722,0.095c-1.552,0.416-2.457,2.045-2.261,3.882c-0.186-0.036-0.373-0.061-0.562-0.061
	c-0.478,0-0.944,0.125-1.349,0.356c-0.775,0.448-1.277,1.265-1.377,2.239c-0.083,0.809,0.115,1.675,0.559,2.441
	c0.565,0.981,1.444,1.658,2.395,1.893C8.894,33.489,8.75,34.23,8.75,35c0,0.938,0.159,1.62,0.499,2.146
	c0.435,0.672,1.138,1.041,1.98,1.041c0.62,0,1.236-0.194,1.89-0.401c0.696-0.22,1.417-0.448,2.131-0.448s1.435,0.229,2.131,0.448
	c0.653,0.207,1.271,0.401,1.89,0.401c0.746,0,2.479-0.311,2.479-3.188c0-0.77-0.144-1.511-0.392-2.208
	c0.95-0.233,1.83-0.911,2.396-1.892c0.443-0.768,0.642-1.635,0.559-2.442C24.213,27.482,23.711,26.666,22.936,26.218z M23.321,30.65
	c-0.488,0.846-1.247,1.449-2.082,1.656l-0.537,0.131l0.185,0.521c0.241,0.677,0.363,1.363,0.363,2.041
	c0,2.223-1.077,2.688-1.979,2.688c-0.542,0-1.122-0.184-1.74-0.379c-0.732-0.23-1.49-0.471-2.281-0.471s-1.548,0.24-2.287,0.473
	c-0.613,0.194-1.192,0.377-1.734,0.377c-0.677,0-1.216-0.28-1.561-0.812C9.383,36.432,9.25,35.836,9.25,35
	c0-0.677,0.122-1.364,0.362-2.042l0.185-0.521L9.26,32.307c-0.834-0.207-1.593-0.811-2.082-1.658
	c-0.391-0.676-0.566-1.437-0.494-2.141c0.083-0.812,0.495-1.49,1.129-1.857c0.329-0.188,0.709-0.289,1.099-0.289
	c0.137,0,0.286,0.016,0.467,0.051l0.663,0.127L9.97,25.867c-0.174-1.625,0.605-3,1.894-3.346c0.193-0.052,0.392-0.078,0.592-0.078
	c0.89,0,1.778,0.533,2.378,1.426l0.415,0.618l0.415-0.618c0.599-0.893,1.488-1.426,2.378-1.426c0.2,0,0.399,0.026,0.592,0.078
	c1.289,0.345,2.068,1.721,1.894,3.346l-0.072,0.672l0.663-0.127c0.182-0.035,0.33-0.051,0.466-0.051c0.39,0,0.77,0.1,1.099,0.289
	c0.635,0.367,1.046,1.043,1.129,1.857C23.888,29.212,23.712,29.973,23.321,30.65z"/>
<path d="M15.25,29.162c-1.793-0.001-5,2.613-5,5.838s2.238,0.838,5,0.838s5,2.387,5-0.838S17.043,29.163,15.25,29.162z"/>
<path d="M16.06,25.374c0.346-1.292,1.384-2.137,2.317-1.886c0.934,0.25,1.41,1.5,1.063,2.792c-0.347,1.292-1.384,2.136-2.317,1.886
	C16.189,27.916,15.713,26.666,16.06,25.374z M13.378,28.168c0.934-0.25,1.41-1.5,1.063-2.792c-0.347-1.292-1.384-2.136-2.317-1.886
	c-0.934,0.25-1.41,1.5-1.063,2.792C11.407,27.574,12.444,28.418,13.378,28.168z M10.729,28.6c-0.592-1.025-1.673-1.511-2.414-1.083
	c-0.741,0.428-0.861,1.606-0.269,2.632c0.592,1.026,1.673,1.512,2.414,1.084C11.201,30.805,11.322,29.626,10.729,28.6z
	 M22.187,27.516c-0.741-0.428-1.822,0.057-2.414,1.082c-0.593,1.026-0.472,2.205,0.269,2.633s1.822-0.057,2.414-1.083
	C23.048,29.121,22.927,27.943,22.187,27.516z"/>
</svg>
