<?xml version="1.0" encoding="utf-8"?>
<!-- Generator: Adobe Illustrator 16.0.4, SVG Export Plug-In . SVG Version: 6.00 Build 0)  -->
<!DOCTYPE svg PUBLIC "-//W3C//DTD SVG 1.1//EN" "http://www.w3.org/Graphics/SVG/1.1/DTD/svg11.dtd">
<svg version="1.1" id="Capa_1" xmlns="http://www.w3.org/2000/svg" xmlns:xlink="http://www.w3.org/1999/xlink" x="0px" y="0px"
	 width="841.889px" height="595.281px" viewBox="0 0 841.889 595.281" enable-background="new 0 0 841.889 595.281"
	 xml:space="preserve">
<path d="M698.364,328.734l-23.514,19.71L410.732,33.307L156.566,348.22l-23.876-19.272L394.436,4.641
	c3.981-4.93,9.795-7.785,15.952-7.851c6.11-0.019,12.026,2.707,16.101,7.562L698.364,328.734z M406.871,62.049L208.57,307.751
	l39.186,223.379h69.964l-19.012-131.398c-5.152-35.587,19.821-64.439,55.789-64.439h119.047c35.959,0,60.244,28.741,54.245,64.188
	l-22.286,131.641h58.077l57.668-223.379L415.224,61.974C412.89,59.184,409.159,59.221,406.871,62.049z M397.715,427.559
	c10.688-5.576,12.96-22.354,5.072-37.476c-7.888-15.12-22.947-22.857-33.637-17.281s-12.96,22.354-5.072,37.475
	C371.966,425.397,387.026,433.135,397.715,427.559z M368.744,429.993c-7.887-15.115-22.946-22.849-33.635-17.271
	c-10.689,5.578-12.961,22.353-5.074,37.469s22.946,22.85,33.636,17.271C374.36,461.885,376.632,445.109,368.744,429.993z
	 M462.413,410.268c7.888-15.12,5.617-31.898-5.072-37.475s-25.749,2.161-33.637,17.282c-7.888,15.12-5.616,31.898,5.072,37.475
	C439.466,433.127,454.526,425.389,462.413,410.268z M491.409,412.75c-10.688-5.577-25.748,2.156-33.635,17.271
	c-7.888,15.116-5.616,31.892,5.073,37.469c10.689,5.578,25.748-2.155,33.636-17.271C504.37,435.102,502.099,418.328,491.409,412.75z
	 M452.504,474.95c0.362-1.972,0.586-4.009,0.586-6.092c0-18.23-19.04-37.271-37.271-37.271c-18.23-0.009-37.261,19.03-37.261,37.261
	c0,2.037,0.205,4.027,0.567,5.972c-11.812,0.604-16.975,14.547-16.975,26.509c0,12.352,10.008,22.351,22.36,22.351
	c11.171,0,28.09-7.6,30.656-8.25c13.264,6.92,19.598,8.25,30.657,8.25c12.353,0,22.36-9.999,22.36-22.351
	C468.186,489.804,463.694,476.177,452.504,474.95z"/>
</svg>
