<?xml version="1.0" encoding="utf-8"?>
<!-- Generator: Adobe Illustrator 19.1.0, SVG Export Plug-In . SVG Version: 6.00 Build 0)  -->
<svg version="1.1" id="Layer_1" xmlns="http://www.w3.org/2000/svg" xmlns:xlink="http://www.w3.org/1999/xlink" x="0px" y="0px"
	 viewBox="0 0 300 116.1" style="enable-background:new 0 0 300 116.1;" xml:space="preserve">
<style type="text/css">
	.st0{fill:#FFFFFF;}
	.st1{fill:#403727;}
	.st2{fill:none;stroke:#81C34A;stroke-width:2;stroke-miterlimit:10;}
	.st3{fill:none;stroke:#403727;stroke-miterlimit:10;}
	.st4{fill:#C77629;}
	.st5{fill:#81C34A;}
</style>
<g>
	<path class="st0" d="M36.6,36.4c0,0,9.3-4.5,19.4,2.6l0.5,7.6c0,0,2.7-0.2,4.1,1.5c0,0,1.2,2.2,1.3,3.7v3.8c0,0-0.1,4-4,4.8
		l0.6,7.5c0,0,0.9,4.8-1.9,8c0,0-2.1,4.6-11.2,4.6l-1.5,1.2l-1.4-0.7c0,0-3.3,0.3-9.4-1.8c0,0-3.8-0.9-7.4-4.4c0,0-2.2-1.9-2.4-6.3
		l2.4-6.7l3.2-9.4l-2.7-1.5c0,0-2.3-2-0.7-5.2c0,0,3.1-7.7,9-9.7C34.4,36,36,35.9,36.6,36.4z"/>
	<path class="st1" d="M34.3,36.4c0,0-3.1,1.7-5.6,5.3c0,0-2.2,2.5-2.7,4.4c0,0-1.2,3.2,0.6,4.5c0,0,2.2,1.2,3.3,1.2
		c0,0,1.8,0.2,2.4-3.6c0,0,0.2-3.7,1.1-5.7c0,0,1.7-3.5,1.8-4.7C35.3,38,36,36.1,34.3,36.4z"/>
	<path class="st1" d="M36.1,37.4c0,0-0.4,2.6-1.1,3.7c0,0-1,2.7-1.2,4.1c0,0-0.8,5.2-1.4,5.7c0,0,0.1,1.5-3.1,1.6l-2.6,8.6
		c0,0-0.6,3.8,0.4,5.6c0,0.1,0.5,1.1,0.5,1.2c0.2,0.5,0.7,1.3,0.7,1.3l3-15.9l2.7,1.5c0,0,2.5-1.3,4.1-1.1c0,0-0.6,1.1-0.2,2.4h0.2
		c0,0,0.1-2.5,0.7-2.7h0.5c0,0-0.7,1.5-0.2,3.1h0.2c0,0-0.2-2.8,0.5-3h0.5c0,0-0.7,0.9-0.2,2.6l0.2,0.1c0,0-0.4-1.9,0.6-2.5
		c0,0,1.7-0.1,3.5,1.2l2.6-1.7L51.5,74c0,0,3.6-1.5,6.1-7l-0.4-6.5l-3.7,0v-0.7l4.7-0.1c0,0,3-1.2,3-4.4V52c0,0-0.5-4.4-3.7-4.4
		l-6.6-0.1c0,0-0.7,0.2-0.8,0.4c-0.1,0.2-0.2-0.5-0.2-0.5s0.5-0.5,1-0.5h4.8l-0.6-7.4c0,0-4.4-3.4-10.6-3.4h-2.7
		C41.8,36,38.2,36.3,36.1,37.4z"/>
	<ellipse class="st2" cx="42.3" cy="57.4" rx="34.8" ry="35"/>
	<ellipse class="st3" cx="42.3" cy="57.4" rx="31.5" ry="31.7"/>
	<circle class="st0" cx="51.2" cy="43.9" r="1.4"/>
	<circle class="st0" cx="44" cy="43.9" r="1.4"/>
	<path class="st0" d="M56,49.2c0,0,3.2-0.4,3.2,1.8c0,0-0.7,1.3-2.4,1.3v3.8h0.9c0,0,1.2-0.4,1.4-1.3c0,0,0.3-0.3,0.4,0
		c0,0-0.3,1.7-1.7,1.7h-2.8c0,0-1.7-0.4-1.7-1.7c0,0,0.2-0.4,0.4,0c0,0,0.4,1.2,1.2,1.2l1.3,0l0-3.8h-1c0,0-2.5-0.1-2.5-1.5
		c0-1.4,2.4-1.6,2.4-1.6L56,49.2z"/>
	<ellipse class="st1" cx="57.1" cy="50.2" rx="1.5" ry="0.6"/>
	<path class="st1" d="M38.5,61.8c0,0-2.3-0.3-2.3,1.3c0,0,0.5,0.9,1.8,0.9v2.8h-0.6c0,0-0.9-0.3-1-1c0,0-0.2-0.2-0.3,0
		c0,0,0.2,1.3,1.2,1.3h2.1c0,0,1.3-0.3,1.3-1.2c0,0-0.2-0.3-0.3,0c0,0-0.3,0.9-0.9,0.9l-1,0l0-2.8h0.8c0,0,1.9-0.1,1.9-1.1
		c0-1-1.7-1.2-1.7-1.2L38.5,61.8z"/>
	<ellipse class="st0" cx="37.7" cy="62.5" rx="1.1" ry="0.5"/>
	<circle class="st1" cx="34.4" cy="59.2" r="1.3"/>
	<circle class="st1" cx="43.6" cy="59.2" r="1.3"/>
	<path class="st1" d="M26.1,62.5c0,0-1.8,10.9,13.1,12.3c0,0-0.1,3.7,3,5.6c0,0-9.2-0.1-15.2-5.1c0,0-2.8-1.8-2.8-7
		C24.2,68.3,25.4,63,26.1,62.5z"/>
	<path class="st1" d="M48.6,75.2c0,0,5.3,0.2,9.1-7.1c0,0,0.5,1.9,0,4.1c0,0-0.9,7.3-11.1,7.9C46.6,80,49,78.2,48.6,75.2z"/>
	<path class="st4" d="M43.9,81.1c0,0,3.8-2.1,4.2-5.4c0,0,0.1-1-0.4-1.7c-0.6-0.9-1.9-1.4-3.8,0.4c0,0-1.4-2.4-3.4-0.7
		c-0.3,0.2-0.7,0.8-0.7,1.3C39.8,75,39.6,78.6,43.9,81.1z"/>
	<g>
		<path class="st1" d="M85.5,44.7c0-0.6,0.2-1.1,0.6-1.5c0.4-0.4,0.9-0.6,1.5-0.6c0.6,0,1.1,0.2,1.5,0.6c0.4,0.4,0.6,0.9,0.6,1.5
			v0.8c0.8-0.8,1.8-1.5,3.1-2.2c1.3-0.6,2.6-1,3.9-1c1.9,0,3.7,0.4,5.3,1.3c1.6,0.9,2.9,2,3.9,3.4c1.1-1.4,2.4-2.6,4-3.4
			c1.6-0.9,3.3-1.3,5.3-1.3c1.6,0,3.1,0.3,4.5,0.9c1.4,0.6,2.6,1.4,3.6,2.4c1,1,1.8,2.2,2.4,3.6c0.6,1.4,0.9,2.9,0.9,4.5v20.5
			c0,0.6-0.2,1.1-0.6,1.5c-0.4,0.4-0.9,0.6-1.5,0.6s-1.1-0.2-1.5-0.6c-0.4-0.4-0.6-0.9-0.6-1.5V53.7c0-1-0.2-1.9-0.6-2.8
			c-0.4-0.9-0.9-1.6-1.5-2.3c-0.7-0.6-1.4-1.2-2.3-1.5c-0.9-0.4-1.8-0.6-2.8-0.6s-1.9,0.2-2.8,0.6c-0.9,0.4-1.6,0.9-2.2,1.5
			c-0.6,0.7-1.1,1.4-1.5,2.3c-0.4,0.9-0.6,1.8-0.6,2.8v20.5c0,0.6-0.2,1.1-0.6,1.5c-0.4,0.4-0.9,0.6-1.5,0.6c-0.6,0-1.1-0.2-1.5-0.6
			c-0.4-0.4-0.6-0.9-0.6-1.5V53.7c-0.1-2-0.8-3.7-2.2-5.1c-1.4-1.3-3-2-4.9-2c-1.9,0-3.6,0.7-4.9,2c-1.3,1.3-2,2.9-2.1,4.8v20.8
			c0,0.6-0.2,1.1-0.6,1.5c-0.4,0.4-0.9,0.6-1.5,0.6c-0.6,0-1.1-0.2-1.5-0.6c-0.4-0.4-0.6-0.9-0.6-1.5V44.7z"/>
		<path class="st1" d="M133.3,34.7c0-0.8,0.3-1.5,0.8-2c0.6-0.6,1.2-0.8,2-0.8c0.8,0,1.5,0.3,2,0.8c0.6,0.6,0.8,1.2,0.8,2
			c0,0.8-0.3,1.5-0.8,2c-0.6,0.6-1.2,0.8-2,0.8c-0.8,0-1.5-0.3-2-0.8C133.6,36.2,133.3,35.5,133.3,34.7z M134,44.7
			c0-0.6,0.2-1.1,0.6-1.5c0.4-0.4,0.9-0.6,1.5-0.6c0.6,0,1.1,0.2,1.5,0.6c0.4,0.4,0.6,0.9,0.6,1.5v29.5c0,0.6-0.2,1.1-0.6,1.5
			c-0.4,0.4-0.9,0.6-1.5,0.6c-0.6,0-1.1-0.2-1.5-0.6c-0.4-0.4-0.6-0.9-0.6-1.5V44.7z"/>
		<path class="st1" d="M144.9,51.3c0-1.6,0.3-3,1-4.1c0.7-1.1,1.5-2,2.6-2.7c1.1-0.7,2.3-1.2,3.6-1.5c1.3-0.3,2.7-0.5,4-0.5
			c1.1,0,2.3,0.1,3.6,0.4c1.3,0.3,2.4,0.6,3.5,1.1c1.1,0.5,1.9,1.1,2.6,1.9c0.7,0.7,1,1.6,1,2.6c0,0.5-0.2,1-0.5,1.5
			c-0.3,0.5-0.9,0.7-1.7,0.7c-0.9,0-1.6-0.5-2-1.5c-0.4-0.9-1.2-1.5-2.4-2c-1.2-0.4-2.6-0.7-4-0.7c-0.8,0-1.6,0.1-2.4,0.2
			c-0.8,0.1-1.5,0.3-2.2,0.7c-0.6,0.3-1.2,0.8-1.6,1.4c-0.4,0.6-0.7,1.4-0.7,2.4c0,0.7,0.2,1.3,0.7,1.8c0.4,0.5,1,0.9,1.7,1.3
			c0.7,0.3,1.4,0.6,2.2,0.8c0.8,0.2,1.6,0.3,2.3,0.5c1.7,0.3,3.3,0.7,4.8,1.2c1.5,0.5,2.8,1.2,4,2.1c1.1,0.8,2,1.8,2.7,3
			c0.7,1.2,1,2.5,1,4c0,1.5-0.3,2.9-1,4.2c-0.7,1.3-1.5,2.4-2.7,3.3c-1.1,0.9-2.5,1.6-4,2.1c-1.5,0.5-3.2,0.7-4.9,0.7
			c-2.9,0-5.5-0.7-7.7-2c-2.2-1.3-3.7-3.2-4.4-5.6c0-0.1-0.1-0.3-0.1-0.6c0-0.6,0.2-1.1,0.6-1.6c0.4-0.5,0.9-0.7,1.6-0.7
			c0.5,0,1,0.2,1.4,0.5c0.4,0.3,0.7,0.7,0.9,1.2c0.6,1.5,1.6,2.6,3.1,3.4c1.5,0.8,3,1.1,4.6,1.1c2.3,0,4.2-0.5,5.8-1.6
			c1.6-1,2.4-2.5,2.4-4.4c0-1.5-0.8-2.8-2.4-3.9c-1.6-1.1-3.5-1.8-5.9-2.1c-3.3-0.5-6-1.4-8.1-2.8C146,55.9,144.9,53.9,144.9,51.3z"
			/>
		<path class="st1" d="M173.6,34.7c0-0.8,0.3-1.5,0.8-2c0.6-0.6,1.2-0.8,2-0.8c0.8,0,1.5,0.3,2,0.8c0.6,0.6,0.8,1.2,0.8,2
			c0,0.8-0.3,1.5-0.8,2c-0.6,0.6-1.2,0.8-2,0.8c-0.8,0-1.5-0.3-2-0.8C173.8,36.2,173.6,35.5,173.6,34.7z M174.3,44.7
			c0-0.6,0.2-1.1,0.6-1.5c0.4-0.4,0.9-0.6,1.5-0.6c0.6,0,1.1,0.2,1.5,0.6c0.4,0.4,0.6,0.9,0.6,1.5v29.5c0,0.6-0.2,1.1-0.6,1.5
			c-0.4,0.4-0.9,0.6-1.5,0.6c-0.6,0-1.1-0.2-1.5-0.6c-0.4-0.4-0.6-0.9-0.6-1.5V44.7z"/>
		<path class="st1" d="M185.7,44.7c0-0.6,0.2-1.1,0.6-1.5c0.4-0.4,0.9-0.6,1.5-0.6c0.6,0,1.1,0.2,1.5,0.6c0.4,0.4,0.6,0.9,0.6,1.5
			v0.9c1.1-0.9,2.3-1.7,3.7-2.2c1.4-0.6,2.9-0.8,4.5-0.8c1.7,0,3.3,0.3,4.9,1c1.5,0.7,2.9,1.5,4,2.7c1.1,1.1,2,2.5,2.7,4
			c0.6,1.5,1,3.2,1,4.9v19.2c0,0.6-0.2,1.1-0.6,1.5c-0.4,0.4-0.9,0.6-1.5,0.6c-0.6,0-1.1-0.2-1.5-0.6c-0.4-0.4-0.6-0.9-0.6-1.5V55
			c0-1.1-0.2-2.2-0.7-3.2c-0.4-1-1-1.9-1.8-2.6c-0.7-0.7-1.6-1.3-2.6-1.7c-1-0.4-2.1-0.6-3.2-0.6c-1.1,0-2.2,0.2-3.1,0.6
			c-1,0.4-1.8,1-2.6,1.7c-0.7,0.7-1.3,1.5-1.7,2.5c-0.4,1-0.7,2-0.7,3v19.5c0,0.6-0.2,1.1-0.6,1.5c-0.4,0.4-0.9,0.6-1.5,0.6
			c-0.6,0-1.1-0.2-1.5-0.6c-0.4-0.4-0.6-0.9-0.6-1.5V44.7z"/>
		<path class="st1" d="M245.7,45.4c0-0.6,0.2-1.1,0.6-1.5c0.4-0.4,0.9-0.6,1.5-0.6c0.6,0,1.1,0.2,1.5,0.6c0.4,0.4,0.6,0.9,0.6,1.5
			v26.9c0,2.3-0.4,4.4-1.3,6.4c-0.9,2-2.1,3.8-3.6,5.3c-1.5,1.5-3.3,2.7-5.3,3.6c-2,0.9-4.2,1.3-6.6,1.3c-2.4,0-4.6-0.4-6.5-1.3
			c-2-0.8-3.8-2-5.3-3.5l-0.1-0.1c-0.4-0.4-0.6-0.9-0.6-1.5c0-0.6,0.2-1.1,0.7-1.6c0.4-0.4,1-0.7,1.6-0.7c0.6,0,1.1,0.2,1.5,0.6
			c1.2,1.2,2.5,2.1,4,2.7c1.5,0.7,3.1,1,4.9,1c1.7,0,3.3-0.3,4.9-1c1.5-0.7,2.9-1.5,4-2.7c1.1-1.1,2-2.5,2.7-4c0.6-1.5,1-3.1,1-4.8
			v-1.5c-1.5,1.7-3.4,3.1-5.5,4.1c-2.2,1-4.5,1.5-7,1.5c-2.3,0-4.5-0.4-6.5-1.3c-2-0.8-3.8-2-5.3-3.5c-1.5-1.5-2.7-3.3-3.6-5.3
			c-0.9-2-1.3-4.3-1.3-6.7c0-2.3,0.4-4.5,1.3-6.5c0.9-2,2-3.8,3.6-5.3c1.5-1.5,3.3-2.7,5.4-3.6c2.1-0.9,4.3-1.4,6.7-1.5
			c2.4,0,4.7,0.6,6.8,1.6c2.1,1,4,2.4,5.6,4.2V45.4z M245.7,59.1c-0.1-1.7-0.5-3.2-1.2-4.7c-0.7-1.5-1.6-2.7-2.7-3.8
			c-1.1-1.1-2.4-2-3.9-2.6c-1.5-0.6-3.1-0.9-4.7-0.9c-1.7,0-3.3,0.3-4.8,1c-1.5,0.7-2.8,1.5-4,2.7c-1.1,1.1-2,2.5-2.7,4
			c-0.6,1.5-1,3.2-1,4.9s0.3,3.3,1,4.8c0.6,1.5,1.5,2.8,2.7,4c1.1,1.1,2.5,2,4,2.7c1.5,0.7,3.1,1,4.8,1c1.7,0,3.3-0.3,4.7-0.9
			c1.5-0.6,2.8-1.5,3.9-2.5c1.1-1.1,2-2.3,2.7-3.8c0.7-1.4,1.1-3,1.2-4.7V59.1z"/>
		<path class="st1" d="M272.2,42.6c2.2,0,4.4,0.5,6.4,1.4c2,0.9,3.8,2.1,5.3,3.7c1.5,1.5,2.8,3.3,3.7,5.4c0.9,2,1.4,4.2,1.4,6.5
			c0,2.3-0.4,4.4-1.3,6.4c-0.9,2-2.1,3.8-3.6,5.3c-1.5,1.5-3.3,2.7-5.3,3.6c-2,0.9-4.2,1.3-6.6,1.3c-2.3,0-4.5-0.4-6.5-1.3
			c-2-0.8-3.8-2-5.3-3.5c-1.5-1.5-2.7-3.2-3.6-5.3c-0.9-2-1.3-4.3-1.3-6.7c0-2.3,0.4-4.5,1.3-6.5c0.9-2,2-3.8,3.6-5.3
			c1.5-1.5,3.3-2.7,5.4-3.6C267.5,43.2,269.8,42.7,272.2,42.6z M272,47c-1.7,0-3.3,0.3-4.8,1c-1.5,0.7-2.8,1.5-4,2.7
			c-1.1,1.1-2,2.5-2.7,4c-0.7,1.5-1,3.2-1,4.9c0,1.7,0.3,3.3,1,4.8c0.6,1.5,1.5,2.8,2.7,4c1.1,1.1,2.5,2,4,2.7c1.5,0.7,3.1,1,4.8,1
			s3.3-0.3,4.9-1c1.5-0.6,2.9-1.5,4-2.7c1.1-1.1,2-2.5,2.7-4c0.6-1.5,1-3.1,1-4.8c0-1.7-0.3-3.3-1-4.9c-0.7-1.5-1.5-2.9-2.7-4
			c-1.1-1.1-2.5-2-4-2.7C275.4,47.4,273.8,47,272,47z"/>
	</g>
	<circle class="st5" cx="136.4" cy="34.7" r="3.4"/>
	<circle class="st5" cx="176.3" cy="34.7" r="3.4"/>
</g>
</svg>
