<?xml version="1.0" encoding="UTF-8" standalone="no"?>
<svg width="355px" height="355px" viewBox="0 0 355 355" version="1.1" xmlns="http://www.w3.org/2000/svg" xmlns:xlink="http://www.w3.org/1999/xlink" xmlns:sketch="http://www.bohemiancoding.com/sketch/ns">
    <!-- Generator: Sketch 3.3.3 (12072) - http://www.bohemiancoding.com/sketch -->
    <title>phone_icon</title>
    <desc>Created with Sketch.</desc>
    <defs></defs>
    <g id="Page-1" stroke="none" stroke-width="1" fill="none" fill-rule="evenodd" sketch:type="MSPage">
        <g id="phone_icon" sketch:type="MSLayerGroup">
            <circle id="Oval-1-Copy" fill="#A6CE39" sketch:type="MSShapeGroup" cx="177.5" cy="177.5" r="177.5"></circle>
            <path d="M231.485377,51.7779643 L127.024623,51.7779643 C117.027296,51.7779643 108.957056,59.907984 108.957056,69.916256 L108.957056,282.65782 C108.957056,292.657018 117.027296,300.777964 127.024623,300.777964 L231.485377,300.777964 C241.464609,300.777964 249.552944,292.657018 249.552944,282.65782 L249.552944,69.916256 C249.552944,59.907984 241.464609,51.7779643 231.485377,51.7779643 L231.485377,51.7779643 Z M153.479087,62.7934151 L205.049007,62.7934151 C206.351826,62.7934151 207.410367,64.7442568 207.410367,67.1578564 C207.410367,69.571456 206.351826,71.5313715 205.049007,71.5313715 L153.479087,71.5313715 C152.167221,71.5313715 151.126775,69.571456 151.126775,67.1578564 C151.126775,64.7442568 152.167221,62.7934151 153.479087,62.7934151 L153.479087,62.7934151 Z M179.264047,282.875588 C172.903757,282.875588 167.72867,277.685442 167.72867,271.297569 C167.72867,264.909697 172.903757,259.737698 179.264047,259.737698 C185.606243,259.737698 190.78133,264.909697 190.78133,271.297569 C190.78133,277.685442 185.606243,282.875588 179.264047,282.875588 L179.264047,282.875588 Z M236.018101,243.232669 L122.500946,243.232669 L122.500946,82.383496 L236.018101,82.383496 L236.018101,243.232669 L236.018101,243.232669 Z" id="Shape" fill="#3E3626" sketch:type="MSShapeGroup"></path>
        </g>
    </g>
</svg>